<svg aria-hidden="true" style="position:absolute;width:0;height:0;overflow:hidden" xmlns="http://www.w3.org/2000/svg">
  <defs>
<symbol id="icon-logo" viewBox="0 0 34 32">
<path d="M24.572 0.621c0.438-0.023 0.91-0.048 1.306 0.041 0.223 0.050 0.371 0.131 0.498 0.327 0.082 0.448 0.155 0.891 0.172 1.347 0.036 0.966 0.028 1.94 0.019 2.911-0.004 0.441-0.009 0.881-0.009 1.32v8.369c0 0.275 0.007 0.737 0.017 1.3 0.034 1.972 0.090 5.177-0.088 5.884-0.127 0.506-0.386 0.74-0.825 0.998-0.392 0.050-0.801 0.060-1.206 0.069-0.212 0.005-0.424 0.008-0.631 0.019-1.954 0.099-4.018 0.3-5.812 1.13-0.48 0.222-0.962 0.483-1.384 0.805-0.216 0.165-0.46 0.394-0.717 0.638-0.643 0.608-1.385 1.311-2.086 1.35-0.808 0.044-1.573-0.647-2.28-1.284-0.336-0.303-0.66-0.593-0.967-0.788-0.746-0.471-1.589-0.834-2.425-1.108-1.379-0.451-2.841-0.683-4.287-0.769-0.218-0.013-0.444-0.012-0.67-0.011-0.42 0.001-0.845 0.003-1.241-0.084-0.345-0.077-0.567-0.252-0.827-0.481-0.19-0.451-0.248-1.009-0.272-1.495-0.042-0.87-0.031-1.75-0.020-2.627 0.005-0.389 0.009-0.777 0.009-1.164l0.006-7.402-0.006-5.602c-0-0.244-0.011-0.51-0.022-0.784-0.029-0.744-0.060-1.555 0.102-2.189 0.089-0.349 0.291-0.503 0.583-0.689 3.211-0.208 6.718 0.459 9.539 2.028 0.937 0.521 1.781 1.16 2.634 1.805 0.48-0.358 0.964-0.716 1.458-1.053 2.656-1.815 5.818-2.711 9.022-2.791 0.131-0.003 0.269-0.011 0.411-0.019zM24.202 3.135c-0.389 0.003-0.801-0.021-1.186 0.030-2.635 0.238-6.017 1.202-7.806 3.302-0.076 0.090-0.148 0.183-0.219 0.277l-0.005 16.481c0.293-0.213 0.582-0.433 0.88-0.639 2.462-1.471 5.542-1.723 8.348-1.925 0-5.838 0.078-11.688-0.012-17.525zM3.202 3.138c-0.060 2.439-0.047 4.887-0.034 7.331 0.005 1.002 0.011 2.003 0.011 3.003 0 0.735-0.009 1.476-0.019 2.217v0.006c-0.021 1.642-0.041 3.293 0.041 4.916 3.242 0.279 6.498 0.599 9.198 2.581-0.016-5.47 0.014-10.939 0.091-16.408-2.123-2.242-5.446-3.566-8.509-3.652-0.259-0.006-0.519-0.004-0.778 0.005z"></path>
<path d="M24.572 0.621v0zM25.878 0.662v0zM26.376 0.988l0.385-0.070-0.014-0.077-0.043-0.066-0.327 0.214zM26.548 2.335v0zM26.567 5.246v0zM26.558 14.935h-0.391v0l0.391-0zM26.575 16.235v0zM26.488 22.12v0zM25.662 23.118l0.049 0.388 0.080-0.010 0.069-0.041-0.199-0.337zM24.456 23.187v0zM23.825 23.205l-0.020-0.391h-0l0.020 0.391zM18.012 24.335v0zM16.628 25.14v0zM15.911 25.777v0zM13.825 27.127l0.022 0.39h0l-0.022-0.39zM11.545 25.843v0zM10.578 25.055v0zM8.153 23.948l0.122-0.372h-0l-0.122 0.372zM3.866 23.179l-0.023 0.39h0l0.023-0.39zM3.195 23.168v0zM1.955 23.084l-0.085 0.382 0.001 0 0.084-0.382zM1.128 22.602l-0.36 0.152 0.035 0.082 0.067 0.059 0.259-0.293zM0.856 21.107v0zM0.836 18.48v0zM0.845 17.316v0zM0.852 9.915l0.391 0v-0.001l-0.391 0zM0.845 4.313v0zM0.823 3.529v0zM0.925 1.34v0zM1.508 0.651l-0.025-0.39-0.1 0.007-0.085 0.054 0.21 0.33zM11.047 2.679v0zM13.681 4.484l-0.236 0.312 0.234 0.177 0.235-0.175-0.234-0.313zM15.139 3.43v0zM24.161 0.64l0.010 0.391h0l-0.010-0.391zM24.202 3.135l0.391-0.006-0.006-0.388-0.388 0.003 0.003 0.391zM23.016 3.165l0.035 0.39 0.016-0.002-0.052-0.388zM15.209 6.466l-0.298-0.254-0.001 0.001 0.299 0.252zM14.991 6.743l-0.313-0.235-0.078 0.104-0 0.13 0.391 0zM14.986 23.224l-0.391-0-0 0.768 0.621-0.452-0.23-0.316zM15.866 22.585l-0.2-0.336-0.012 0.007-0.011 0.008 0.223 0.321zM24.214 20.66l0.028 0.39 0.363-0.026v-0.364h-0.391zM3.202 3.138l-0.013-0.391-0.369 0.012-0.009 0.369 0.391 0.010zM3.167 10.469v0zM3.178 13.473v0zM3.159 15.69l-0.391-0.005v0.005h0.391zM3.159 15.696l0.391 0.005v-0.005h-0.391zM3.2 20.612l-0.39 0.020 0.017 0.34 0.34 0.029 0.034-0.389zM12.398 23.193l-0.231 0.315 0.625 0.458-0.002-0.775-0.391 0.001zM12.489 6.785l0.391 0.005 0.002-0.159-0.109-0.115-0.284 0.269zM3.98 3.134l0.011-0.391-0.003-0-0.008 0.391zM24.572 0.621l0.021 0.39c0.452-0.024 0.867-0.043 1.2 0.032l0.17-0.763c-0.458-0.102-0.988-0.072-1.412-0.049l0.021 0.39zM25.878 0.662l-0.085 0.382c0.086 0.019 0.132 0.039 0.161 0.058 0.026 0.017 0.057 0.043 0.095 0.101l0.655-0.427c-0.090-0.137-0.197-0.249-0.332-0.335-0.132-0.083-0.272-0.129-0.409-0.16l-0.085 0.382zM26.376 0.988l-0.384 0.070c0.082 0.446 0.15 0.865 0.166 1.291l0.781-0.029c-0.018-0.486-0.096-0.953-0.178-1.403l-0.385 0.070zM26.548 2.335l-0.391 0.015c0.036 0.956 0.028 1.92 0.018 2.893l0.782 0.007c0.009-0.97 0.017-1.953-0.019-2.929l-0.391 0.015zM26.567 5.246l-0.391-0.004c-0.004 0.439-0.009 0.883-0.009 1.324h0.782c0-0.437 0.005-0.875 0.009-1.317l-0.391-0.004zM26.558 6.566h-0.391v8.369h0.782v-8.369h-0.391zM26.558 14.935l-0.391 0c0 0.278 0.007 0.744 0.017 1.306l0.782-0.014c-0.010-0.564-0.017-1.023-0.017-1.294l-0.391 0zM26.575 16.235l-0.391 0.007c0.017 0.987 0.040 2.277 0.036 3.408-0.002 0.566-0.011 1.088-0.029 1.512-0.020 0.436-0.049 0.73-0.082 0.863l0.758 0.19c0.055-0.221 0.086-0.593 0.105-1.018 0.020-0.439 0.028-0.973 0.030-1.544 0.004-1.141-0.019-2.44-0.036-3.424l-0.391 0.007zM26.488 22.12l-0.379-0.095c-0.051 0.202-0.121 0.328-0.21 0.429-0.095 0.107-0.227 0.205-0.434 0.328l0.397 0.674c0.231-0.136 0.448-0.284 0.624-0.485 0.182-0.207 0.305-0.451 0.381-0.755l-0.379-0.095zM25.662 23.118l-0.049-0.388c-0.369 0.047-0.758 0.057-1.166 0.066l0.017 0.782c0.402-0.009 0.831-0.019 1.247-0.072l-0.049-0.388zM24.456 23.187l-0.009-0.391c-0.209 0.005-0.428 0.008-0.642 0.019l0.020 0.391 0.020 0.39c0.2-0.010 0.405-0.014 0.62-0.018l-0.009-0.391zM23.825 23.205l-0.020-0.391c-1.957 0.1-4.088 0.301-5.957 1.165l0.328 0.71c1.72-0.795 3.717-0.995 5.668-1.094l-0.020-0.39zM18.012 24.335l-0.164-0.355c-0.494 0.228-1.004 0.504-1.457 0.848l0.473 0.622c0.391-0.298 0.845-0.545 1.312-0.761l-0.164-0.355zM16.628 25.14l-0.237-0.311c-0.237 0.18-0.496 0.425-0.749 0.665l0.538 0.568c0.262-0.248 0.489-0.461 0.685-0.61l-0.237-0.311zM15.911 25.777l-0.269-0.284c-0.325 0.308-0.653 0.617-0.982 0.856-0.335 0.243-0.621 0.374-0.857 0.388l0.022 0.39 0.022 0.39c0.464-0.026 0.9-0.265 1.272-0.535 0.378-0.274 0.743-0.62 1.060-0.921l-0.269-0.284zM13.825 27.127l-0.022-0.39c-0.285 0.016-0.594-0.097-0.943-0.324s-0.694-0.537-1.053-0.86l-0.524 0.58c0.348 0.314 0.74 0.669 1.151 0.936s0.889 0.478 1.412 0.449l-0.022-0.39zM11.545 25.843l0.262-0.29c-0.329-0.297-0.679-0.612-1.020-0.828l-0.418 0.661c0.274 0.173 0.571 0.438 0.914 0.747l0.262-0.29zM10.578 25.055l0.209-0.331c-0.78-0.492-1.654-0.868-2.512-1.149l-0.243 0.743c0.814 0.267 1.626 0.618 2.338 1.067l0.209-0.331zM8.153 23.948l0.122-0.372c-1.418-0.464-2.914-0.7-4.386-0.788l-0.023 0.39-0.023 0.39c1.422 0.084 2.849 0.312 4.189 0.75l0.122-0.372zM3.866 23.179l0.023-0.39c-0.233-0.014-0.472-0.012-0.695-0.012l0.001 0.391 0.001 0.391c0.23-0.001 0.442-0.002 0.646 0.010l0.023-0.39zM3.195 23.168l-0.001-0.391c-0.429 0.001-0.809 0.001-1.155-0.075l-0.169 0.764c0.446 0.098 0.915 0.095 1.326 0.094l-0.001-0.391zM1.955 23.084l0.085-0.382c-0.242-0.054-0.402-0.17-0.652-0.392l-0.518 0.585c0.268 0.237 0.553 0.471 1.001 0.57l0.085-0.382zM1.128 22.602l0.36-0.152c-0.161-0.383-0.219-0.882-0.242-1.362l-0.781 0.038c0.024 0.492 0.084 1.109 0.302 1.628l0.36-0.152zM0.856 21.107l0.391-0.019c-0.041-0.856-0.031-1.724-0.020-2.603l-0.782-0.010c-0.011 0.875-0.022 1.767 0.021 2.65l0.391-0.019zM0.836 18.48l0.391 0.005c0.005-0.389 0.009-0.78 0.009-1.169l-0.782-0c-0 0.384-0.004 0.771-0.009 1.159l0.391 0.005zM0.845 17.316l0.391 0 0.006-7.402-0.782-0.001-0.006 7.402 0.391 0zM0.852 9.915l0.391-0-0.006-5.602-0.782 0.001 0.006 5.602 0.391-0zM0.845 4.313l0.391-0c-0-0.253-0.012-0.527-0.022-0.799l-0.781 0.031c0.011 0.277 0.021 0.534 0.022 0.769l0.391-0zM0.823 3.529l0.391-0.015c-0.030-0.762-0.055-1.509 0.090-2.077l-0.758-0.193c-0.179 0.701-0.142 1.575-0.113 2.301l0.391-0.015zM0.925 1.34l0.379 0.097c0.050-0.196 0.139-0.281 0.414-0.456l-0.421-0.659c-0.309 0.197-0.623 0.421-0.751 0.922l0.379 0.097zM1.508 0.651l0.025 0.39c3.146-0.204 6.576 0.451 9.324 1.98l0.38-0.683c-2.895-1.611-6.479-2.289-9.754-2.077l0.025 0.39zM11.047 2.679l-0.19 0.342c0.909 0.506 1.732 1.127 2.589 1.775l0.471-0.624c-0.85-0.642-1.715-1.298-2.68-1.834l-0.19 0.342zM13.681 4.484l0.234 0.313c0.479-0.358 0.958-0.711 1.445-1.044l-0.441-0.646c-0.501 0.343-0.991 0.705-1.471 1.063l0.234 0.313zM15.139 3.43l0.221 0.323c2.586-1.767 5.673-2.644 8.811-2.723l-0.010-0.391-0.010-0.391c-3.269 0.081-6.507 0.996-9.233 2.859l0.221 0.323zM24.161 0.64l0.010 0.391c0.138-0.003 0.283-0.012 0.422-0.019l-0.042-0.781c-0.144 0.008-0.276 0.015-0.4 0.018l0.010 0.391zM24.202 3.135l-0.003-0.391c-0.351 0.003-0.817-0.022-1.234 0.033l0.051 0.388 0.052 0.388c0.353-0.047 0.711-0.023 1.138-0.026l-0.003-0.391zM23.016 3.165l-0.035-0.389c-1.347 0.122-2.887 0.429-4.324 0.977-1.434 0.547-2.792 1.344-3.744 2.46l0.595 0.507c0.837-0.982 2.065-1.717 3.428-2.237 1.36-0.518 2.828-0.812 4.116-0.929l-0.035-0.389zM15.209 6.466l-0.299-0.252c-0.082 0.097-0.16 0.197-0.233 0.294l0.625 0.47c0.068-0.090 0.136-0.177 0.205-0.259l-0.299-0.252zM14.991 6.743l-0.391-0-0.005 16.481 0.782 0 0.005-16.481-0.391-0zM14.986 23.224l0.23 0.316c0.302-0.219 0.58-0.431 0.873-0.634l-0.446-0.642c-0.301 0.209-0.603 0.438-0.887 0.644l0.23 0.316zM15.866 22.585l0.2 0.336c2.369-1.415 5.353-1.668 8.176-1.871l-0.028-0.39-0.028-0.39c-2.789 0.201-5.966 0.453-8.521 1.979l0.2 0.336zM24.214 20.66h0.391c0-5.831 0.078-11.69-0.012-17.531l-0.782 0.012c0.090 5.833 0.013 11.674 0.012 17.519h0.391zM3.202 3.138l-0.391-0.010c-0.061 2.446-0.047 4.9-0.034 7.343l0.782-0.004c-0.013-2.445-0.026-4.888 0.034-7.32l-0.391-0.010zM3.167 10.469l-0.391 0.002c0.005 1.002 0.011 2.002 0.011 3.001l0.782-0c-0-1.001-0.006-2.004-0.011-3.005l-0.391 0.002zM3.178 13.473l-0.391 0c0 0.732-0.009 1.47-0.019 2.212l0.782 0.010c0.009-0.741 0.019-1.484 0.019-2.222l-0.391 0zM3.159 15.69h-0.391v0.006h0.782v-0.006h-0.391zM3.159 15.696l-0.391-0.005c-0.021 1.639-0.041 3.303 0.041 4.94l0.781-0.039c-0.081-1.609-0.061-3.247-0.040-4.891l-0.391-0.005zM3.2 20.612l-0.034 0.389c3.257 0.28 6.401 0.6 9.001 2.507l0.463-0.631c-2.802-2.056-6.169-2.378-9.396-2.656l-0.034 0.39zM12.398 23.193l0.391-0.001c-0.016-5.467 0.014-10.934 0.091-16.401l-0.782-0.011c-0.077 5.471-0.107 10.943-0.091 16.414l0.391-0.001zM12.489 6.785l0.284-0.269c-2.203-2.326-5.628-3.685-8.782-3.773l-0.022 0.782c2.973 0.083 6.193 1.372 8.236 3.53l0.284-0.269zM3.98 3.134l0.008-0.391c-0.267-0.006-0.533-0.004-0.799 0.005l0.025 0.782c0.252-0.008 0.505-0.010 0.757-0.005l0.008-0.391z"></path>
</symbol>
<symbol id="icon-email" viewBox="0 0 31 32">
<path d="M25.6 6.291h-20.48c-1.412 0-2.56 1.148-2.56 2.56v15.36c0 1.412 1.148 2.56 2.56 2.56h20.48c1.412 0 2.56-1.148 2.56-2.56v-15.36c0-1.412-1.148-2.56-2.56-2.56zM25.6 8.851v0.654l-10.24 7.965-10.24-7.964v-0.655h20.48zM5.12 24.211v-11.464l9.454 7.354c0.224 0.176 0.501 0.272 0.786 0.272s0.562-0.096 0.786-0.272l9.454-7.354 0.003 11.464h-20.483z"></path>
</symbol>
<symbol id="icon-phone" viewBox="0 0 30 32">
<path d="M23.532 17.933c-0.148-0.149-0.325-0.267-0.519-0.347s-0.402-0.122-0.612-0.122c-0.21 0-0.418 0.041-0.612 0.122s-0.37 0.199-0.519 0.347l-2.55 2.55c-1.182-0.352-3.389-1.152-4.787-2.55s-2.198-3.605-2.55-4.787l2.55-2.55c0.149-0.148 0.267-0.325 0.347-0.519s0.122-0.402 0.122-0.612c0-0.21-0.041-0.418-0.122-0.612s-0.198-0.37-0.347-0.519l-6.4-6.4c-0.148-0.149-0.325-0.267-0.519-0.347s-0.402-0.122-0.612-0.122c-0.21 0-0.418 0.041-0.612 0.122s-0.37 0.198-0.519 0.347l-4.339 4.339c-0.608 0.608-0.95 1.443-0.938 2.296 0.037 2.278 0.64 10.192 6.877 16.429s14.15 6.838 16.43 6.877h0.045c0.845 0 1.643-0.333 2.248-0.938l4.339-4.339c0.149-0.148 0.267-0.325 0.347-0.519s0.122-0.402 0.122-0.612c0-0.21-0.041-0.418-0.122-0.612s-0.198-0.37-0.347-0.519l-6.4-6.402zM23.328 28.672c-1.997-0.034-8.829-0.57-14.197-5.939-5.386-5.386-5.907-12.242-5.939-14.198l3.208-3.208 4.138 4.138-2.069 2.069c-0.188 0.188-0.326 0.42-0.402 0.675s-0.087 0.524-0.033 0.785c0.038 0.184 0.978 4.547 3.634 7.203s7.019 3.595 7.203 3.634c0.26 0.056 0.53 0.046 0.785-0.030s0.487-0.214 0.674-0.403l2.070-2.069 4.138 4.138-3.21 3.208z"></path>
</symbol>
<symbol id="icon-office" viewBox="0 0 24 32">
<path d="M12.191 19.68c3.362 0 6.095-2.734 6.095-6.095s-2.734-6.095-6.095-6.095c-3.362 0-6.095 2.734-6.095 6.095s2.734 6.095 6.095 6.095zM12.191 10.537c1.681 0 3.048 1.367 3.048 3.048s-1.367 3.048-3.048 3.048-3.048-1.367-3.048-3.048c0-1.681 1.367-3.048 3.048-3.048z"></path>
<path d="M11.307 31.587c0.258 0.184 0.567 0.283 0.884 0.283s0.626-0.099 0.884-0.283c0.463-0.328 11.351-8.189 11.307-18.002 0-6.722-5.469-12.19-12.191-12.19s-12.19 5.469-12.19 12.183c-0.044 9.821 10.843 17.682 11.307 18.010zM12.191 4.442c5.042 0 9.143 4.101 9.143 9.15 0.032 6.763-6.686 12.835-9.143 14.827-2.455-1.993-9.175-8.067-9.143-14.834 0-5.042 4.101-9.143 9.143-9.143z"></path>
</symbol>
<symbol id="icon-mobile-btn" viewBox="0 0 43 32">
<path d="M0 0h42.667v5.333h-42.667v-5.333zM10.667 13.333h32v5.333h-32v-5.333zM24 26.667h18.667v5.333h-18.667v-5.333z"></path>
</symbol>
<symbol id="icon-close-btn" viewBox="0 0 32 32">
<path d="M29.671 28.728l-0.943 0.943c-0.521 0.521-1.365 0.521-1.886 0l-10.842-10.842-10.842 10.842c-0.521 0.521-1.365 0.521-1.886 0l-0.943-0.943c-0.521-0.521-0.521-1.365 0-1.886l10.842-10.842-10.842-10.842c-0.521-0.521-0.521-1.365 0-1.886l0.943-0.943c0.521-0.521 1.365-0.521 1.886 0l10.842 10.842 10.842-10.842c0.521-0.521 1.365-0.521 1.886 0l0.943 0.943c0.521 0.521 0.521 1.365 0 1.886l-10.842 10.842 10.842 10.842c0.521 0.521 0.521 1.365 0 1.886z"></path>
</symbol>
<symbol id="icon-star" viewBox="0 0 32 32">
<path d="M7.226 19.717l-2.384 10.323c-0.074 0.313-0.052 0.64 0.064 0.94s0.318 0.558 0.582 0.74c0.264 0.183 0.577 0.281 0.899 0.283s0.635-0.093 0.902-0.273l8.712-5.808 8.712 5.808c0.273 0.181 0.594 0.274 0.921 0.267s0.644-0.114 0.908-0.307c0.264-0.193 0.463-0.462 0.57-0.771s0.116-0.644 0.028-0.959l-2.926-10.24 7.258-6.531c0.232-0.209 0.399-0.482 0.477-0.785s0.068-0.622-0.033-0.918-0.285-0.556-0.532-0.749c-0.247-0.192-0.544-0.308-0.856-0.333l-9.122-0.726-3.947-8.738c-0.126-0.281-0.33-0.52-0.589-0.688s-0.56-0.257-0.868-0.257c-0.308 0-0.61 0.089-0.868 0.257s-0.463 0.407-0.589 0.688l-3.947 8.738-9.122 0.725c-0.306 0.024-0.599 0.136-0.844 0.323s-0.43 0.439-0.534 0.728c-0.104 0.289-0.123 0.602-0.055 0.902s0.223 0.573 0.443 0.788l6.742 6.571zM11.79 12.795c0.286-0.023 0.56-0.121 0.794-0.286s0.42-0.39 0.537-0.651l2.878-6.37 2.878 6.37c0.117 0.261 0.303 0.486 0.537 0.651s0.508 0.264 0.794 0.286l6.355 0.504-5.234 4.71c-0.454 0.41-0.635 1.040-0.469 1.629l2.005 7.016-5.978-3.986c-0.262-0.176-0.571-0.27-0.887-0.27s-0.625 0.094-0.887 0.27l-6.246 4.165 1.68-7.274c0.062-0.268 0.053-0.546-0.024-0.81s-0.221-0.503-0.418-0.694l-4.861-4.739 6.544-0.522z"></path>
</symbol>
<symbol id="icon-check" viewBox="0 0 32 32">
<path d="M13.333 20.781l-4.391-4.391-1.885 1.885 6.276 6.276 12.943-12.943-1.885-1.885-11.057 11.057z"></path>
</symbol>
<symbol id="icon-plus" viewBox="0 0 32 32">
<path d="M25.333 14.667h-8v-8h-2.667v8h-8v2.667h8v8h2.667v-8h8v-2.667z"></path>
</symbol>
<symbol id="icon-minus" viewBox="0 0 32 32">
<path d="M6.667 14.667h18.667v2.667h-18.667v-2.667z"></path>
</symbol>
<symbol id="icon-right-arrow-alt" viewBox="0 0 32 32">
<path d="M15.057 23.057l1.885 1.885 8.943-8.943-8.943-8.943-1.885 1.885 5.724 5.724h-12.781v2.667h12.781l-5.724 5.724z"></path>
</symbol>
<symbol id="icon-left-arrow-alt" viewBox="0 0 32 32">
<path d="M16.943 23.057l-5.724-5.724h12.781v-2.667h-12.781l5.724-5.724-1.885-1.885-8.943 8.943 8.943 8.943 1.885-1.885z"></path>
</symbol>
<symbol id="icon-down-arrow-alt" viewBox="0 0 32 32">
<path d="M24.943 16.943l-1.885-1.885-5.724 5.724v-12.781h-2.667v12.781l-5.724-5.724-1.885 1.885 8.943 8.943 8.943-8.943z"></path>
</symbol>
<symbol id="icon-up-arrow-alt" viewBox="0 0 32 32">
<path d="M14.667 11.219v12.781h2.667v-12.781l5.724 5.724 1.885-1.885-8.943-8.943-8.943 8.943 1.885 1.885 5.724-5.724z"></path>
</symbol>
<symbol id="icon-chevron-right" viewBox="0 0 32 32">
<path d="M12.943 22.599l7.609-7.609-7.609-7.609-1.885 1.885 5.724 5.724-5.724 5.724 1.885 1.885z"></path>
</symbol>
<symbol id="icon-chevron-left" viewBox="0 0 32 32">
<path d="M17.724 8.391l-7.609 7.609 7.609 7.609 1.885-1.885-5.724-5.724 5.724-5.724-1.885-1.885z"></path>
</symbol>
<symbol id="icon-chevron-down" viewBox="0 0 32 32">
<path d="M21.724 11.057l-5.724 5.724-5.724-5.724-1.885 1.885 7.609 7.609 7.609-7.609-1.885-1.885z"></path>
</symbol>
<symbol id="icon-chevron-up" viewBox="0 0 32 32">
<path d="M8.391 19.057l1.885 1.885 5.724-5.724 5.724 5.724 1.885-1.885-7.609-7.609-7.609 7.609z"></path>
</symbol>
  </defs>
</svg>
